<svg id="Layer_1" data-name="Layer 1" xmlns="http://www.w3.org/2000/svg" viewBox="0 0 20 20"><defs><style>.cls-1{fill:none;}.cls-2{fill:#29392c;}</style></defs><circle class="cls-1" cx="10" cy="10" r="4.38"/><rect class="cls-2" x="16.5" y="9.25" width="3.5" height="1"/><rect class="cls-2" x="1.92" y="15.08" width="3.5" height="1" transform="translate(-9.95 7.16) rotate(-45)"/><path class="cls-2" d="M10,4.62A5.38,5.38,0,1,0,15.38,10,5.39,5.39,0,0,0,10,4.62Zm0,9.76A4.38,4.38,0,1,1,14.38,10,4.39,4.39,0,0,1,10,14.38Z"/><rect class="cls-2" x="9.25" y="16.5" width="1" height="3.5"/><rect class="cls-2" x="15.83" y="13.83" width="1" height="3.5" transform="translate(-6.24 16.11) rotate(-45)"/><rect class="cls-2" y="9.25" width="3.5" height="1"/><rect class="cls-2" x="13.58" y="3.42" width="3.5" height="1" transform="translate(1.72 11.99) rotate(-45)"/><rect class="cls-2" x="9.25" width="1" height="3.5"/><rect class="cls-2" x="4.17" y="2.17" width="1" height="3.5" transform="translate(-1.4 4.45) rotate(-45)"/></svg>